<?xml version="1.0" standalone="no"?>
<!DOCTYPE svg PUBLIC "-//W3C//DTD SVG 20010904//EN"
 "http://www.w3.org/TR/2001/REC-SVG-20010904/DTD/svg10.dtd">
<svg version="1.0" xmlns="http://www.w3.org/2000/svg"
 width="1406.000000pt" height="1406.000000pt" viewBox="0 0 1406.000000 1406.000000"
 preserveAspectRatio="xMidYMid meet">
<metadata>
Created by potrace 1.14, written by Peter Selinger 2001-2017
</metadata>
<g transform="translate(0.000000,1406.000000) scale(0.100000,-0.100000)"
fill="#000000" stroke="none">
<path d="M1517 9969 c-51 -12 -109 -42 -153 -82 -60 -52 -1316 -1734 -1339
-1792 -24 -64 -25 -172 -2 -240 37 -105 124 -191 227 -222 51 -16 513 -17
6760 -17 3688 0 6725 3 6750 6 219 31 358 280 269 483 -26 61 -1280 1736
-1334 1784 -22 19 -64 46 -94 60 l-56 26 -5495 1 c-3022 1 -5512 -3 -5533 -7z"/>
<path d="M524 7009 c-8 -9 -120 -157 -249 -330 -199 -266 -239 -324 -255 -377
-20 -65 -20 -143 -1 -210 28 -94 114 -186 210 -224 l56 -22 6745 0 6745 0 56
22 c139 55 231 195 224 344 -5 107 -22 137 -283 484 l-247 329 -6493 0 c-5939
0 -6495 -1 -6508 -16z"/>
<path d="M534 5245 c-8 -5 -122 -154 -253 -330 -269 -359 -283 -384 -275 -509
9 -160 119 -289 276 -326 28 -6 2363 -9 6753 -9 5736 0 6718 2 6762 14 182 49
296 245 248 428 -19 73 -8 56 -283 425 -136 182 -241 312 -250 313 -10 0
-2930 1 -6491 2 -4303 1 -6479 -1 -6487 -8z"/>
</g>
</svg>
